<svg width="32" height="32" viewBox="0 0 32 32" fill="none" xmlns="http://www.w3.org/2000/svg">
<g clip-path="url(#clip0_78_45)">
<path d="M10.7057 4C9.8444 4 9.03646 4.41585 8.53646 5.11719L3.41927 12.2786C3.10327 12.72 3.42088 13.3333 3.96355 13.3333H4V26.6667C4.00004 27.0203 4.14053 27.3594 4.39057 27.6094C4.64061 27.8595 4.97973 28 5.33334 28H26.6667C27.0203 28 27.3594 27.8595 27.6094 27.6094C27.8595 27.3594 28 27.0203 28 26.6667V13.3333H28.0365C28.5791 13.3333 28.8967 12.72 28.5807 12.2786L23.4635 5.11719C22.9635 4.41719 22.1556 4 21.2943 4H10.7057ZM11.3333 6.79948L15.2031 12.2161C15.7031 12.9175 16.5111 13.3333 17.3724 13.3333H25.3333V25.3333H14.6667V18.6667C14.6667 17.9307 14.0693 17.3333 13.3333 17.3333H10.6667C9.93067 17.3333 9.33334 17.9307 9.33334 18.6667V25.3333H6.66667V13.3333L11.3333 6.79948ZM18.6667 17.3333C17.9307 17.3333 17.3333 17.9307 17.3333 18.6667V21.3333C17.3333 22.0693 17.9307 22.6667 18.6667 22.6667H21.3333C22.0693 22.6667 22.6667 22.0693 22.6667 21.3333V18.6667C22.6667 17.9307 22.0693 17.3333 21.3333 17.3333H18.6667Z" fill="#A68743"/>
</g>
<defs>
<clipPath id="clip0_78_45">
<rect width="32" height="32" fill="white"/>
</clipPath>
</defs>
</svg>
